<svg xmlns="http://www.w3.org/2000/svg" viewBox="0 0 1600 900" role="img" aria-labelledby="title desc">
  <title id="title">SMK Negeri 1 Grogol</title>
  <desc id="desc">Ilustrasi kartu sekolah SMK Negeri 1 Grogol di Kediri.</desc>
  <defs>
    <linearGradient id="bg" x1="0%" y1="0%" x2="100%" y2="100%">
      <stop offset="0%" stop-color="#dbeafe" />
      <stop offset="100%" stop-color="#bfdbfe" />
    </linearGradient>
    <pattern id="grid" width="56" height="56" patternUnits="userSpaceOnUse">
      <path d="M 56 0 L 0 0 0 56" fill="none" stroke="#2563eb" stroke-opacity=".10" stroke-width="2" />
    </pattern>
  </defs>
  <rect width="1600" height="900" fill="url(#bg)" />
  <rect width="1600" height="900" fill="url(#grid)" />
  <circle cx="220" cy="180" r="160" fill="#3b82f6" fill-opacity=".12" />
  <circle cx="1330" cy="760" r="190" fill="#2563eb" fill-opacity=".12" />
  <rect x="155" y="190" width="520" height="470" rx="34" fill="#ffffff" fill-opacity=".8" />
  <rect x="208" y="255" width="414" height="128" rx="28" fill="#2563eb" fill-opacity=".14" />
  <rect x="208" y="417" width="128" height="188" rx="24" fill="#eff6ff" />
  <rect x="351" y="417" width="128" height="188" rx="24" fill="#eff6ff" />
  <rect x="494" y="417" width="128" height="188" rx="24" fill="#eff6ff" />
  <path d="M260 320 h120" stroke="#2563eb" stroke-width="18" stroke-linecap="round" />
  <path d="M418 320 h120" stroke="#2563eb" stroke-width="18" stroke-linecap="round" />
  <text x="760" y="285" fill="#1e3a8a" font-size="82" font-family="Space Grotesk, Arial, sans-serif" font-weight="700">SMK Negeri 1 Grogol</text>
  <text x="760" y="377" fill="#1d4ed8" font-size="36" font-family="Plus Jakarta Sans, Arial, sans-serif">Kediri • 2018 - 2021</text>
  <text x="760" y="467" fill="#1e40af" font-size="48" font-family="Plus Jakarta Sans, Arial, sans-serif" font-weight="600">Mulai dekat dengan pola pikir teknis dan vokasional.</text>
  <text x="760" y="547" fill="#1d4ed8" font-size="32" font-family="Plus Jakarta Sans, Arial, sans-serif">Masa ketika problem solving, praktik, dan kesiapan kerja mulai terasa dominan.</text>
</svg>
